<svg width="300" height="277" viewBox="0 0 300 277" fill="none" xmlns="http://www.w3.org/2000/svg">
<g clip-path="url(#clip0_6_294)">
<path d="M141.78 276.411H4.93835C2.70819 276.411 0.893311 274.597 0.893311 272.366V4.0111C0.893311 1.78095 2.70819 -0.0339355 4.93835 -0.0339355H141.78C144.01 -0.0339355 145.824 1.78095 145.824 4.0111V272.366C145.824 274.597 144.01 276.411 141.78 276.411ZM4.93835 0.143938C2.80528 0.143938 1.07048 1.87874 1.07048 4.01181V272.367C1.07048 274.5 2.80528 276.235 4.93835 276.235H141.78C143.913 276.235 145.647 274.5 145.647 272.367V4.0111C145.647 1.87874 143.913 0.14323 141.78 0.14323L4.93835 0.143938Z" fill="#EBEBEB"/>
<path d="M295.062 276.411H158.22C155.99 276.411 154.175 274.597 154.175 272.366V4.0111C154.175 1.78095 155.99 -0.0339355 158.22 -0.0339355H295.062C297.292 -0.0339355 299.107 1.78095 299.107 4.0111V272.366C299.107 274.597 297.292 276.411 295.062 276.411ZM158.22 0.143938C156.087 0.143938 154.353 1.87874 154.353 4.01181V272.367C154.353 274.5 156.087 276.235 158.22 276.235H295.062C297.195 276.235 298.929 274.5 298.929 272.367V4.0111C298.929 1.87874 297.195 0.14323 295.062 0.14323L158.22 0.143938Z" fill="#EBEBEB"/>
<path d="M52.9516 80.2539L54.0975 82.5755L56.6593 82.9482L54.8054 84.7553L55.2434 87.3072L52.9516 86.1025L50.6598 87.3072L51.0977 84.7553L49.2432 82.9482L51.8057 82.5755L52.9516 80.2539Z" fill="#EBEBEB"/>
<path d="M282.311 189.555L283.457 191.877L286.018 192.25L284.164 194.057L284.602 196.608L282.311 195.404L280.019 196.608L280.456 194.057L278.602 192.25L281.165 191.877L282.311 189.555Z" fill="#F5F5F5"/>
<path d="M236.881 256.937L238.027 259.258L240.59 259.63L238.735 261.438L239.173 263.99L236.881 262.785L234.589 263.99L235.027 261.438L233.173 259.63L235.735 259.258L236.881 256.937Z" fill="#F5F5F5"/>
<path d="M132.953 39.0856L133.378 39.9474L134.329 40.0856C134.567 40.1203 134.662 40.4116 134.49 40.5795L133.801 41.2506L133.964 42.1981C134.004 42.4348 133.756 42.6148 133.544 42.5035L132.693 42.0564L131.842 42.5035C131.629 42.6155 131.381 42.4348 131.422 42.1981L131.585 41.2506L130.897 40.5795C130.725 40.4123 130.819 40.1203 131.057 40.0856L132.008 39.9474L132.433 39.0856C132.54 38.8702 132.847 38.8702 132.953 39.0856Z" fill="#EBEBEB"/>
<path d="M15.9049 245.911L16.3301 246.773L17.2812 246.911C17.5186 246.946 17.6135 247.237 17.4413 247.405L16.7532 248.076L16.9155 249.024C16.9559 249.26 16.7079 249.44 16.496 249.329L15.6449 248.882L14.7938 249.329C14.5812 249.44 14.3331 249.26 14.3742 249.024L14.5365 248.076L13.8484 247.405C13.6769 247.238 13.7712 246.946 14.0086 246.911L14.9596 246.773L15.3848 245.911C15.4918 245.696 15.7986 245.696 15.9049 245.911Z" fill="#F5F5F5"/>
<path d="M35.0232 29.9772L35.4484 30.839L36.3994 30.9772C36.6368 31.0119 36.7318 31.3032 36.5596 31.4711L35.8715 32.1422L36.0338 33.0897C36.0742 33.3264 35.8261 33.5064 35.6135 33.3944L34.7624 32.9472L33.912 33.3944C33.6994 33.5064 33.4514 33.3257 33.4918 33.0897L33.6541 32.1422L32.966 31.4711C32.7945 31.3039 32.8887 31.0119 33.1261 30.9772L34.0771 30.839L34.5023 29.9772C34.6101 29.7618 34.9169 29.7618 35.0232 29.9772Z" fill="#EBEBEB"/>
<path d="M33.8724 200.777C33.8724 201.297 33.4514 201.718 32.932 201.718C32.4125 201.718 31.9916 201.297 31.9916 200.777C31.9916 200.258 32.4125 199.837 32.932 199.837C33.4507 199.837 33.8724 200.258 33.8724 200.777Z" fill="#EBEBEB"/>
<path d="M168.192 82.8383C168.192 83.3578 167.771 83.7787 167.252 83.7787C166.732 83.7787 166.311 83.3578 166.311 82.8383C166.311 82.3189 166.732 81.8979 167.252 81.8979C167.771 81.8979 168.192 82.3189 168.192 82.8383Z" fill="#EBEBEB"/>
<path d="M119.32 30.7561C119.32 31.2755 118.899 31.6965 118.379 31.6965C117.86 31.6965 117.439 31.2755 117.439 30.7561C117.439 30.2366 117.86 29.8157 118.379 29.8157C118.899 29.8157 119.32 30.2373 119.32 30.7561Z" fill="#F5F5F5"/>
<path d="M120.832 260.432C123.631 259.771 125.364 256.966 124.703 254.167C124.042 251.369 121.237 249.635 118.439 250.296C115.64 250.957 113.907 253.762 114.567 256.561C115.228 259.359 118.033 261.093 120.832 260.432Z" fill="#F0F0F0"/>
<path d="M117.825 252.347C116.719 252.347 115.692 252.702 114.855 253.311C114.579 253.949 114.423 254.651 114.423 255.388C114.423 258.265 116.755 260.589 119.632 260.589C120.603 260.589 121.517 260.32 122.296 259.853C122.289 259.846 122.289 259.846 122.296 259.846C122.686 259.123 122.906 258.301 122.906 257.422C122.906 254.622 120.631 252.347 117.825 252.347Z" fill="#E6E6E6"/>
<path d="M77.4897 164.866H34.3641V145.396L77.4897 94.1335H98.1224V146.5H108.816V164.866H98.1224V180.792H77.4897V164.866ZM77.4897 146.5V119.686L54.702 146.5H77.4897Z" fill="#FF7D47"/>
<path d="M116.198 137.84C116.198 121.644 119.113 110.312 124.945 103.84C130.777 97.3693 139.658 94.1335 151.594 94.1335C157.328 94.1335 162.036 94.8415 165.717 96.2553C169.397 97.6698 172.401 99.5102 174.725 101.776C177.05 104.043 178.881 106.426 180.217 108.925C181.555 111.424 182.63 114.34 183.443 117.673C185.031 124.028 185.826 130.654 185.826 137.55C185.826 153.01 183.21 164.325 177.979 171.492C172.748 178.661 163.739 182.244 150.953 182.244C143.784 182.244 137.992 181.1 133.575 178.815C129.158 176.53 125.534 173.178 122.707 168.761C120.651 165.623 119.053 161.331 117.912 155.887C116.769 150.443 116.198 144.428 116.198 137.84ZM139.679 137.898C139.679 148.748 140.638 156.158 142.555 160.13C144.474 164.102 147.254 166.087 150.896 166.087C153.298 166.087 155.381 165.245 157.144 163.559C158.907 161.874 160.205 159.211 161.039 155.568C161.871 151.926 162.288 146.249 162.288 138.538C162.288 127.225 161.329 119.621 159.412 115.726C157.493 111.832 154.617 109.885 150.78 109.885C146.866 109.885 144.038 111.871 142.294 115.843C140.551 119.814 139.679 127.166 139.679 137.898Z" fill="#FF7D47"/>
<path d="M236.275 164.866H193.15V145.396L236.275 94.1335H256.908V146.5H267.602V164.866H256.908V180.792H236.275V164.866ZM236.275 146.5V119.686L213.488 146.5H236.275Z" fill="#FF7D47"/>
<g opacity="0.3">
<path d="M115.242 64.2176C115.242 64.9476 114.65 65.5393 113.92 65.5393C113.19 65.5393 112.598 64.9476 112.598 64.2176C112.598 63.4877 113.19 62.896 113.92 62.896C114.65 62.896 115.242 63.4877 115.242 64.2176Z" fill="#FF7D47"/>
<path d="M24.5429 115.123C25.0607 115.123 25.4805 114.704 25.4805 114.186C25.4805 113.668 25.0607 113.248 24.5429 113.248C24.0251 113.248 23.6053 113.668 23.6053 114.186C23.6053 114.704 24.0251 115.123 24.5429 115.123Z" fill="#FF7D47"/>
<path d="M179.093 251.735C179.834 251.735 180.435 251.134 180.435 250.394C180.435 249.653 179.834 249.052 179.093 249.052C178.353 249.052 177.752 249.653 177.752 250.394C177.752 251.134 178.353 251.735 179.093 251.735Z" fill="#FF7D47"/>
<path d="M211.298 197.237C211.816 197.237 212.235 196.817 212.235 196.299C212.235 195.781 211.816 195.362 211.298 195.362C210.78 195.362 210.36 195.781 210.36 196.299C210.36 196.817 210.78 197.237 211.298 197.237Z" fill="#FF7D47"/>
<path d="M273.43 28.7852C273.43 29.3033 273.01 29.7228 272.492 29.7228C271.974 29.7228 271.555 29.3033 271.555 28.7852C271.555 28.2672 271.974 27.8477 272.492 27.8477C273.01 27.8477 273.43 28.2672 273.43 28.7852Z" fill="#FF7D47"/>
<path d="M95.2588 9.89508C95.2588 10.4131 94.8393 10.8326 94.3212 10.8326C93.8032 10.8326 93.3837 10.4131 93.3837 9.89508C93.3837 9.37705 93.8032 8.95752 94.3212 8.95752C94.8393 8.95752 95.2588 9.37705 95.2588 9.89508Z" fill="#FF7D47"/>
<path d="M169.626 59.0075C170.144 59.0075 170.564 58.5877 170.564 58.0699C170.564 57.5521 170.144 57.1323 169.626 57.1323C169.109 57.1323 168.689 57.5521 168.689 58.0699C168.689 58.5877 169.109 59.0075 169.626 59.0075Z" fill="#FF7D47"/>
</g>
<path d="M72.9211 59.0111C81.4963 59.0111 88.4478 52.0595 88.4478 43.4843C88.4478 34.9091 81.4963 27.9575 72.9211 27.9575C64.3459 27.9575 57.3943 34.9091 57.3943 43.4843C57.3943 52.0595 64.3459 59.0111 72.9211 59.0111Z" fill="#FF7D47"/>
<path opacity="0.7" d="M72.9211 59.0111C81.4963 59.0111 88.4478 52.0595 88.4478 43.4843C88.4478 34.9091 81.4963 27.9575 72.9211 27.9575C64.3459 27.9575 57.3943 34.9091 57.3943 43.4843C57.3943 52.0595 64.3459 59.0111 72.9211 59.0111Z" fill="white"/>
<path opacity="0.2" d="M67.57 31.7695C65.3937 31.7695 63.328 32.2195 61.4465 33.0239C58.9307 35.7827 57.3958 39.4571 57.3958 43.4851C57.3958 52.0578 64.3456 59.0076 72.9183 59.0076C75.1017 59.0076 77.1823 58.5576 79.0716 57.7462C79.0716 57.7462 79.0716 57.7462 79.0716 57.7391C81.5724 54.9796 83.0996 51.3201 83.0996 47.2998C83.1003 38.7194 76.1505 31.7695 67.57 31.7695Z" fill="#FF7D47"/>
<path opacity="0.2" d="M66.0265 35.8748C66.0265 36.6585 65.3909 37.2942 64.6071 37.2942C63.8233 37.2942 63.1876 36.6585 63.1876 35.8748C63.1876 35.091 63.8233 34.4553 64.6071 34.4553C65.3909 34.4553 66.0265 35.091 66.0265 35.8748Z" fill="#FF7D47"/>
<path opacity="0.2" d="M82.7226 34.4553C82.7226 35.2391 82.0869 35.8748 81.3031 35.8748C80.5193 35.8748 79.8837 35.2391 79.8837 34.4553C79.8837 33.6716 80.5193 33.0359 81.3031 33.0359C82.0869 33.0366 82.7226 33.6716 82.7226 34.4553Z" fill="#FF7D47"/>
<path opacity="0.2" d="M79.8837 44.5757C79.8837 45.8584 78.844 46.8987 77.5607 46.8987C76.278 46.8987 75.2377 45.8584 75.2377 44.5757C75.2377 43.293 76.2773 42.2527 77.5607 42.2527C78.8433 42.2527 79.8837 43.293 79.8837 44.5757Z" fill="#FF7D47"/>
<path opacity="0.2" d="M72.5023 51.1982C72.5023 52.9131 71.1119 54.3028 69.3976 54.3028C67.6827 54.3028 66.293 52.9124 66.293 51.1982C66.293 49.4832 67.6834 48.0935 69.3976 48.0935C71.1119 48.0935 72.5023 49.4839 72.5023 51.1982Z" fill="#FF7D47"/>
<path d="M256.942 230.813C258.671 223.49 254.137 216.152 246.813 214.423C239.49 212.694 232.152 217.228 230.423 224.551C228.694 231.875 233.228 239.213 240.552 240.942C247.875 242.671 255.213 238.136 256.942 230.813Z" fill="#FF7D47"/>
<path opacity="0.3" d="M256.942 230.813C258.671 223.49 254.137 216.152 246.813 214.423C239.49 212.694 232.152 217.228 230.423 224.551C228.694 231.875 233.228 239.213 240.552 240.942C247.875 242.671 255.213 238.136 256.942 230.813Z" fill="white"/>
<path opacity="0.4" d="M252.283 217.091C251.044 216.714 249.724 216.515 248.359 216.515C240.834 216.515 234.732 222.617 234.732 230.141C234.732 234.406 236.687 238.205 239.756 240.706C240.996 241.082 242.316 241.281 243.682 241.281C251.207 241.281 257.308 235.18 257.308 227.655C257.308 223.391 255.353 219.584 252.283 217.091Z" fill="#FF7D47"/>
<path d="M230.667 231.695C216.115 238.542 226.971 243.82 247.471 236.453C266.452 229.631 273.668 221.026 256.72 223.692C257.595 227.312 233.822 236.575 230.667 231.695Z" fill="#FF7D47"/>
<path opacity="0.2" d="M252.116 94.1316C233.06 107.008 208.392 123.988 201.581 164.863H200.129C206.755 124.484 230.523 107.058 249.586 94.1316H252.116Z" fill="black"/>
<path d="M153.557 222C141.531 222.001 129.598 216.571 123.803 207.695C120.222 202.211 116.064 190.723 128.448 175.396L129.551 176.287C120.79 187.129 119.17 198.008 124.99 206.921C132.072 217.77 148.798 223.224 163.066 219.342C177.685 215.364 186.56 202.648 187.417 184.456C190.347 122.231 223.405 103.063 247.544 89.0668C262.54 80.3715 273.376 74.0885 270.994 60.8351C270.664 58.9962 269.93 57.7255 268.752 56.951C265.668 54.9185 259.644 56.3231 252.67 57.9488C238.989 61.1356 220.252 65.501 209.09 46.5152L210.311 45.7966C220.945 63.8838 238.358 59.8281 252.348 56.5676C259.64 54.8696 265.938 53.402 269.532 55.7661C271.052 56.7667 271.987 58.3428 272.389 60.5843C274.947 74.8156 263.168 81.6457 248.254 90.2928C224.398 104.125 191.726 123.069 188.832 184.522C187.945 203.37 178.689 216.559 163.438 220.709C160.224 221.584 156.885 222 153.557 222Z" fill="#FF7D47"/>
<path opacity="0.2" d="M153.557 222C141.531 222.001 129.598 216.571 123.803 207.695C120.222 202.211 116.064 190.723 128.448 175.396L129.551 176.287C120.79 187.129 119.17 198.008 124.99 206.921C132.072 217.77 148.798 223.224 163.066 219.342C177.685 215.364 186.56 202.648 187.417 184.456C190.347 122.231 223.405 103.063 247.544 89.0668C262.54 80.3715 273.376 74.0885 270.994 60.8351C270.664 58.9962 269.93 57.7255 268.752 56.951C265.668 54.9185 259.644 56.3231 252.67 57.9488C238.989 61.1356 220.252 65.501 209.09 46.5152L210.311 45.7966C220.945 63.8838 238.358 59.8281 252.348 56.5676C259.64 54.8696 265.938 53.402 269.532 55.7661C271.052 56.7667 271.987 58.3428 272.389 60.5843C274.947 74.8156 263.168 81.6457 248.254 90.2928C224.398 104.125 191.726 123.069 188.832 184.522C187.945 203.37 178.689 216.559 163.438 220.709C160.224 221.584 156.885 222 153.557 222Z" fill="white"/>
<path d="M194.474 29.7277C199.332 29.6391 204.099 31.24 204.099 31.24C204.099 31.24 211.87 44.5422 212.817 47.5866C212.49 50.5914 207.421 55.5173 207.421 55.5173L194.474 29.7277Z" fill="#FF7D47"/>
<path opacity="0.3" d="M194.474 29.7277C199.332 29.6391 204.099 31.24 204.099 31.24C204.099 31.24 211.87 44.5422 212.817 47.5866C212.49 50.5914 207.421 55.5173 207.421 55.5173L194.474 29.7277Z" fill="white"/>
<path d="M217.563 94.3463C214.632 90.6273 211.754 86.8388 209.372 82.7349C208.776 81.7095 208.212 80.6649 207.679 79.6062C207.375 79.0045 207.082 78.3979 206.797 77.787C206.548 77.2534 205.999 76.4675 205.944 75.885C205.093 66.9048 208.167 60.2944 205.215 53.0859L193.543 57.6476C193.543 57.6476 194.536 70.4899 196.801 78.1725C198.207 82.939 201.39 87.0655 204.457 90.8838C205.417 92.0786 206.341 93.3003 207.299 94.4966C208.205 95.629 209.221 96.6679 210.129 97.7947C211.509 99.5047 211.968 101.137 210.919 103.153C210.863 103.261 210.805 103.368 210.744 103.474C210.447 103.999 211.84 104.594 212.715 103.489C214.162 101.66 213.935 101.772 215.168 100.213C215.918 99.2659 216.778 98.2433 217.521 97.3546C218.246 96.4879 218.262 95.2336 217.563 94.3463Z" fill="#FF7D47"/>
<path opacity="0.7" d="M217.563 94.3463C214.632 90.6273 211.754 86.8388 209.372 82.7349C208.776 81.7095 208.212 80.6649 207.679 79.6062C207.375 79.0045 207.082 78.3979 206.797 77.787C206.548 77.2534 205.999 76.4675 205.944 75.885C205.093 66.9048 208.167 60.2944 205.215 53.0859L193.543 57.6476C193.543 57.6476 194.536 70.4899 196.801 78.1725C198.207 82.939 201.39 87.0655 204.457 90.8838C205.417 92.0786 206.341 93.3003 207.299 94.4966C208.205 95.629 209.221 96.6679 210.129 97.7947C211.509 99.5047 211.968 101.137 210.919 103.153C210.863 103.261 210.805 103.368 210.744 103.474C210.447 103.999 211.84 104.594 212.715 103.489C214.162 101.66 213.935 101.772 215.168 100.213C215.918 99.2659 216.778 98.2433 217.521 97.3546C218.246 96.4879 218.262 95.2336 217.563 94.3463Z" fill="white"/>
<path opacity="0.3" d="M214.709 90.6506C213.147 92.5392 209.97 94.9891 208.569 95.9819C208.874 96.3213 209.176 96.6679 209.479 97.0144C212.361 95.1315 214.641 92.6887 215.505 91.6966C215.238 91.3529 214.974 91.0014 214.709 90.6506Z" fill="#FF7D47"/>
<path opacity="0.3" d="M217.56 94.3479C217.533 94.311 217.505 94.2813 217.478 94.2451C216.986 94.7575 216.64 95.5746 216.582 96.4916C216.535 97.1251 216.641 97.7048 216.849 98.1576C217.085 97.8841 217.305 97.6134 217.521 97.3561C218.25 96.4887 218.26 95.2351 217.56 94.3479Z" fill="#FF7D47"/>
<path d="M191.699 38.2331C190.478 40.009 189.039 41.7594 187.181 43.3312C186.259 44.1214 185.207 44.8364 184.051 45.443C183.468 45.7407 182.855 45.9986 182.221 46.2119L181.742 46.3657L181.588 46.4139C181.476 46.4479 181.363 46.4784 181.25 46.5053C181.036 46.5535 180.821 46.5861 180.631 46.6017C179.864 46.6598 179.307 46.5507 178.849 46.4366C177.944 46.19 177.339 45.8604 176.768 45.5408C176.204 45.2156 175.71 44.8825 175.241 44.5388C174.318 43.8365 173.484 43.1314 172.706 42.3788C171.139 40.8835 169.75 39.333 168.461 37.606C167.872 36.8186 168.034 35.7039 168.821 35.1164C169.429 34.6622 170.232 34.6551 170.836 35.0371L170.89 35.0718C172.562 36.1334 174.25 37.253 175.896 38.2551C176.727 38.7455 177.539 39.2387 178.338 39.6228C178.731 39.8212 179.115 40.0019 179.463 40.1302C179.801 40.262 180.138 40.3371 180.226 40.3194C180.263 40.3173 180.219 40.267 179.958 40.2762C179.895 40.2797 179.806 40.2882 179.715 40.3081C179.662 40.318 179.611 40.3315 179.56 40.3478C179.512 40.3641 179.581 40.3343 179.585 40.3301L179.82 40.2103C180.132 40.0515 180.431 39.8531 180.734 39.6512C181.341 39.2408 181.918 38.72 182.508 38.1488C183.674 36.9901 184.797 35.548 185.982 34.0485L185.997 34.0279C187.21 32.4915 189.44 32.23 190.976 33.4433C192.447 34.6048 192.743 36.7088 191.699 38.2331Z" fill="#FF7D47"/>
<path opacity="0.7" d="M191.699 38.2331C190.478 40.009 189.039 41.7594 187.181 43.3312C186.259 44.1214 185.207 44.8364 184.051 45.443C183.468 45.7407 182.855 45.9986 182.221 46.2119L181.742 46.3657L181.588 46.4139C181.476 46.4479 181.363 46.4784 181.25 46.5053C181.036 46.5535 180.821 46.5861 180.631 46.6017C179.864 46.6598 179.307 46.5507 178.849 46.4366C177.944 46.19 177.339 45.8604 176.768 45.5408C176.204 45.2156 175.71 44.8825 175.241 44.5388C174.318 43.8365 173.484 43.1314 172.706 42.3788C171.139 40.8835 169.75 39.333 168.461 37.606C167.872 36.8186 168.034 35.7039 168.821 35.1164C169.429 34.6622 170.232 34.6551 170.836 35.0371L170.89 35.0718C172.562 36.1334 174.25 37.253 175.896 38.2551C176.727 38.7455 177.539 39.2387 178.338 39.6228C178.731 39.8212 179.115 40.0019 179.463 40.1302C179.801 40.262 180.138 40.3371 180.226 40.3194C180.263 40.3173 180.219 40.267 179.958 40.2762C179.895 40.2797 179.806 40.2882 179.715 40.3081C179.662 40.318 179.611 40.3315 179.56 40.3478C179.512 40.3641 179.581 40.3343 179.585 40.3301L179.82 40.2103C180.132 40.0515 180.431 39.8531 180.734 39.6512C181.341 39.2408 181.918 38.72 182.508 38.1488C183.674 36.9901 184.797 35.548 185.982 34.0485L185.997 34.0279C187.21 32.4915 189.44 32.23 190.976 33.4433C192.447 34.6048 192.743 36.7088 191.699 38.2331Z" fill="white"/>
<path d="M165.793 33.6019L166.623 34.9951C166.623 34.9951 167.257 36.849 168.527 37.192L171.966 36.078L171.794 35.7888C171.796 35.7895 171.798 35.7895 171.799 35.7895C171.358 35.1184 171.406 33.8244 171.561 32.748C171.715 31.6715 171.157 31.6332 170.745 31.9011C170.507 32.0556 170.338 32.5467 170.144 33.0761C169.975 32.8429 169.794 32.6183 169.589 32.4142L168.538 31.3675C168.084 30.9161 167.358 30.8955 166.88 31.3207L166.028 32.0776C165.594 32.4631 165.496 33.103 165.793 33.6019Z" fill="#FF7D47"/>
<path opacity="0.7" d="M165.793 33.6019L166.623 34.9951C166.623 34.9951 167.257 36.849 168.527 37.192L171.966 36.078L171.794 35.7888C171.796 35.7895 171.798 35.7895 171.799 35.7895C171.358 35.1184 171.406 33.8244 171.561 32.748C171.715 31.6715 171.157 31.6332 170.745 31.9011C170.507 32.0556 170.338 32.5467 170.144 33.0761C169.975 32.8429 169.794 32.6183 169.589 32.4142L168.538 31.3675C168.084 30.9161 167.358 30.8955 166.88 31.3207L166.028 32.0776C165.594 32.4631 165.496 33.103 165.793 33.6019Z" fill="white"/>
<path d="M197.958 28.5053C194.663 29.3046 190.137 31.1847 187.081 33.0889C185.997 33.7635 185.456 35.0448 185.712 36.2956C187.075 42.9853 190.186 51.9464 193.544 57.6468L209.214 51.1647C209.321 48.4009 205.517 39.4576 201.642 30.8141C200.946 29.2593 199.613 28.1042 197.958 28.5053Z" fill="#FF7D47"/>
<path opacity="0.8" d="M197.958 28.5053C194.663 29.3046 190.137 31.1847 187.081 33.0889C185.997 33.7635 185.456 35.0448 185.712 36.2956C187.075 42.9853 190.186 51.9464 193.544 57.6468L209.214 51.1647C209.321 48.4009 205.517 39.4576 201.642 30.8141C200.946 29.2593 199.613 28.1042 197.958 28.5053Z" fill="white"/>
<path opacity="0.3" d="M204.068 36.2934L200.958 35.251C201.654 37.0701 204.171 39.3761 205.94 40.7303C205.357 39.3088 204.725 37.8227 204.068 36.2934Z" fill="#FF7D47"/>
<path d="M196.925 21.4866C195.632 19.0198 192.834 17.7782 189.473 18.0588C186.64 18.2955 184.127 21.1883 184.425 22.7516C184.723 24.3149 187.108 24.9768 187.539 25.5196L185.574 26.944C184.596 27.6534 184.405 29.0324 185.152 29.982C185.979 31.0323 187.067 32.1293 187.702 32.9039C193.133 32.7628 197.149 30.6907 198.596 28.6972C198.076 26.1609 198.212 23.94 196.925 21.4866Z" fill="#FF7D47"/>
<path opacity="0.8" d="M196.925 21.4866C195.632 19.0198 192.834 17.7782 189.473 18.0588C186.64 18.2955 184.127 21.1883 184.425 22.7516C184.723 24.3149 187.108 24.9768 187.539 25.5196L185.574 26.944C184.596 27.6534 184.405 29.0324 185.152 29.982C185.979 31.0323 187.067 32.1293 187.702 32.9039C193.133 32.7628 197.149 30.6907 198.596 28.6972C198.076 26.1609 198.212 23.94 196.925 21.4866Z" fill="white"/>
<path d="M194.264 23.0144C195.342 25.7753 193.98 28.8878 191.219 29.9664C188.458 31.045 185.345 29.6822 184.267 26.9212C183.188 24.161 184.551 21.0479 187.312 19.9693C190.072 18.8907 193.184 20.2542 194.264 23.0144Z" fill="#263238"/>
<path d="M240.275 86.8789C240.196 84.5481 240.096 84.7813 240.028 82.7942C239.987 81.5874 239.982 80.2508 239.974 79.0929C239.966 77.9626 239.167 76.9952 238.06 76.7706C237.121 76.58 236.179 76.3985 235.241 76.1987C234.018 75.9379 232.809 75.6573 231.608 75.3086C230.677 75.0379 229.753 74.7396 228.841 74.4107C227.863 74.0585 226.898 73.6723 225.943 73.2627C224.826 72.7837 223.723 72.2734 222.628 71.7476C221.405 71.1608 220.192 70.5542 218.983 69.9398C214.32 62.2189 214.219 57.1315 209.214 51.1638L198.47 56.0238C198.47 56.0238 206.364 70.0305 211.74 75.9691C214.835 79.387 219.69 80.9276 224.02 82.0459C227.143 82.8523 230.311 83.4696 233.482 84.0521C234.716 84.2781 236.056 84.366 237.116 85.1023C237.952 85.682 238.384 86.587 238.631 87.5486C238.681 87.7449 238.724 87.9434 238.762 88.1432C238.875 88.7363 240.323 88.2885 240.275 86.8789Z" fill="#FF7D47"/>
<path opacity="0.8" d="M240.275 86.8789C240.196 84.5481 240.096 84.7813 240.028 82.7942C239.987 81.5874 239.982 80.2508 239.974 79.0929C239.966 77.9626 239.167 76.9952 238.06 76.7706C237.121 76.58 236.179 76.3985 235.241 76.1987C234.018 75.9379 232.809 75.6573 231.608 75.3086C230.677 75.0379 229.753 74.7396 228.841 74.4107C227.863 74.0585 226.898 73.6723 225.943 73.2627C224.826 72.7837 223.723 72.2734 222.628 71.7476C221.405 71.1608 220.192 70.5542 218.983 69.9398C214.32 62.2189 214.219 57.1315 209.214 51.1638L198.47 56.0238C198.47 56.0238 206.364 70.0305 211.74 75.9691C214.835 79.387 219.69 80.9276 224.02 82.0459C227.143 82.8523 230.311 83.4696 233.482 84.0521C234.716 84.2781 236.056 84.366 237.116 85.1023C237.952 85.682 238.384 86.587 238.631 87.5486C238.681 87.7449 238.724 87.9434 238.762 88.1432C238.875 88.7363 240.323 88.2885 240.275 86.8789Z" fill="white"/>
<path opacity="0.3" d="M234.827 76.1102C234.404 76.0173 233.974 75.9224 233.547 75.821C233.58 78.2681 232.433 82.4945 232.011 83.7751C232.458 83.8594 232.912 83.9458 233.359 84.0309C234.603 80.6683 234.798 77.1087 234.827 76.1102Z" fill="#FF7D47"/>
<path opacity="0.3" d="M239.972 79.0936C239.965 77.9605 239.169 76.9953 238.063 76.7685C237.841 76.7232 237.611 76.675 237.387 76.6367C237.434 77.3029 237.848 78.076 238.541 78.6897C238.995 79.0993 239.509 79.3714 239.981 79.4997C239.974 79.3587 239.973 79.2262 239.972 79.0936Z" fill="#FF7D47"/>
<path d="M193.261 23.0598C193.548 24.1341 192.345 25.2637 191.383 24.3346C190.602 23.5806 189.426 22.3178 188.465 21.7176C187.479 21.1003 188.794 20.026 190.343 20.4427C191.79 20.8324 192.974 21.9847 193.261 23.0598Z" fill="white"/>
<path d="M193.342 57.3024C192.843 57.4866 193.756 58.3342 193.756 58.3342C193.756 58.3342 203.656 54.9418 209.697 51.4488C209.748 50.7182 209.216 50.3306 209.216 50.3306C209.216 50.3306 201.866 54.1602 193.342 57.3024Z" fill="#FF7D47"/>
<path opacity="0.5" d="M193.342 57.3024C192.843 57.4866 193.756 58.3342 193.756 58.3342C193.756 58.3342 203.656 54.9418 209.697 51.4488C209.748 50.7182 209.216 50.3306 209.216 50.3306C209.216 50.3306 201.866 54.1602 193.342 57.3024Z" fill="white"/>
<path d="M200.641 28.0367C202.595 29.0239 204.435 30.0691 206.273 31.2264C207.188 31.8025 208.098 32.3943 208.995 33.0328C209.9 33.6585 210.792 34.3183 211.687 35.0609L212.023 35.3359L212.442 35.7136C212.739 35.9758 212.957 36.2175 213.176 36.4584C213.406 36.7072 213.595 36.9467 213.782 37.1855C213.975 37.4257 214.159 37.6646 214.324 37.8998C215.025 38.8409 215.596 39.7983 216.156 40.748C217.246 42.6734 218.189 44.596 218.967 46.6646C219.314 47.5872 218.848 48.6162 217.925 48.9642C217.231 49.225 216.477 49.0265 215.998 48.5206L215.964 48.4823C214.54 46.9743 213.174 45.3833 211.8 43.9058C210.456 42.4324 209.028 40.9202 207.876 40.2625C206.268 39.2591 204.476 38.2627 202.696 37.2812L197.336 34.3062L197.323 34.2991C195.612 33.3495 194.994 31.1924 195.944 29.4809C196.872 27.812 198.952 27.1863 200.641 28.0367Z" fill="#FF7D47"/>
<path opacity="0.8" d="M200.641 28.0367C202.595 29.0239 204.435 30.0691 206.273 31.2264C207.188 31.8025 208.098 32.3943 208.995 33.0328C209.9 33.6585 210.792 34.3183 211.687 35.0609L212.023 35.3359L212.442 35.7136C212.739 35.9758 212.957 36.2175 213.176 36.4584C213.406 36.7072 213.595 36.9467 213.782 37.1855C213.975 37.4257 214.159 37.6646 214.324 37.8998C215.025 38.8409 215.596 39.7983 216.156 40.748C217.246 42.6734 218.189 44.596 218.967 46.6646C219.314 47.5872 218.848 48.6162 217.925 48.9642C217.231 49.225 216.477 49.0265 215.998 48.5206L215.964 48.4823C214.54 46.9743 213.174 45.3833 211.8 43.9058C210.456 42.4324 209.028 40.9202 207.876 40.2625C206.268 39.2591 204.476 38.2627 202.696 37.2812L197.336 34.3062L197.323 34.2991C195.612 33.3495 194.994 31.1924 195.944 29.4809C196.872 27.812 198.952 27.1863 200.641 28.0367Z" fill="white"/>
<path d="M220.677 50.1292L220.075 48.6233C220.075 48.6233 219.739 46.6929 218.54 46.155L214.968 46.7163L215.093 47.0288C215.091 47.0281 215.09 47.0274 215.088 47.0274C215.418 47.7587 215.168 49.0301 214.846 50.0683C214.524 51.1072 215.07 51.2326 215.519 51.0327C215.779 50.9172 216.022 50.4587 216.296 49.9662C216.427 50.2235 216.571 50.4736 216.741 50.7068L217.615 51.9051C217.992 52.4217 218.706 52.5564 219.246 52.2112L220.205 51.5968C220.695 51.2843 220.893 50.6685 220.677 50.1292Z" fill="#FF7D47"/>
<path opacity="0.8" d="M220.677 50.1292L220.075 48.6233C220.075 48.6233 219.739 46.6929 218.54 46.155L214.968 46.7163L215.093 47.0288C215.091 47.0281 215.09 47.0274 215.088 47.0274C215.418 47.7587 215.168 49.0301 214.846 50.0683C214.524 51.1072 215.07 51.2326 215.519 51.0327C215.779 50.9172 216.022 50.4587 216.296 49.9662C216.427 50.2235 216.571 50.4736 216.741 50.7068L217.615 51.9051C217.992 52.4217 218.706 52.5564 219.246 52.2112L220.205 51.5968C220.695 51.2843 220.893 50.6685 220.677 50.1292Z" fill="white"/>
<path opacity="0.3" d="M197.648 36.1821L196.784 36.2523L191.479 49.0677C191.791 49.089 192.077 49.0628 192.343 48.9976C192.343 48.9976 199.259 46.4202 201.352 45.4755C199.944 42.5558 197.648 36.1821 197.648 36.1821Z" fill="#FF7D47"/>
<path d="M187.962 39.5447C188.257 41.8528 189.988 46.7581 191.48 49.0677C194.07 48.1747 198.397 46.4903 200.49 45.5456C199.08 42.6266 197.597 38.6043 196.784 36.2529C194.553 36.401 189.689 38.2329 187.962 39.5447Z" fill="white"/>
<path opacity="0.3" d="M193.228 42.3163C192.939 43.2837 191.92 43.8329 190.953 43.543C189.987 43.2532 189.437 42.2348 189.727 41.2682C190.017 40.3009 191.035 39.7517 192.002 40.0415C192.968 40.3307 193.517 41.349 193.228 42.3163Z" fill="#FF7D47"/>
<path opacity="0.6" d="M194.584 39.8749C194.489 40.1916 194.155 40.3716 193.838 40.2767C193.522 40.1817 193.342 39.8479 193.436 39.5312C193.531 39.2144 193.865 39.0344 194.181 39.1294C194.499 39.2236 194.679 39.5574 194.584 39.8749Z" fill="#FF7D47"/>
<path opacity="0.6" d="M196.166 39.2592C196.071 39.5759 195.737 39.7559 195.42 39.661C195.103 39.566 194.923 39.2322 195.018 38.9155C195.113 38.5987 195.447 38.4187 195.764 38.5136C196.081 38.6086 196.261 38.9424 196.166 39.2592Z" fill="#FF7D47"/>
<path opacity="0.5" d="M198.395 44.7781L191.842 47.3675L191.446 46.0792L197.999 43.489L198.395 44.7781Z" fill="#FF7D47"/>
<path opacity="0.2" d="M162.229 143.27C162.088 148.613 161.691 152.717 161.039 155.565C160.203 159.208 158.906 161.872 157.141 163.559C155.384 165.246 153.3 166.089 150.898 166.089C147.255 166.089 144.47 164.105 142.557 160.129C142.245 159.484 141.962 158.747 141.699 157.925C137.653 161.405 133.883 165.203 130.418 169.285L126.655 173.721C128.688 175.784 130.999 177.477 133.578 178.817C137.993 181.098 143.783 182.247 150.955 182.247C152.216 182.247 153.435 182.211 154.618 182.14C158.955 175.72 162.548 168.817 165.319 161.575L175.843 134.135L162.229 143.27Z" fill="black"/>
<path d="M67.3616 180.679C71.328 184.645 79.7646 193.082 79.7646 193.082L114.497 160.365C102.544 155.821 79.2465 168.795 67.3616 180.679Z" fill="#263238"/>
<path d="M110.614 223.931C106.648 219.965 98.2109 211.528 98.2109 211.528L130.928 176.797C135.472 188.748 122.499 212.046 110.614 223.931Z" fill="#263238"/>
<path d="M158.078 145.771L171.607 119.686L145.522 133.215C137.141 137.562 129.404 143.049 122.53 149.52L78.0637 191.38L99.9118 213.228L141.772 168.762C148.244 161.889 153.731 154.152 158.078 145.771Z" fill="#FF7D47"/>
<path opacity="0.6" d="M158.078 145.771L171.607 119.686L145.522 133.215C137.141 137.562 129.404 143.049 122.53 149.52L78.0637 191.38L99.9118 213.228L141.772 168.762C148.244 161.889 153.731 154.152 158.078 145.771Z" fill="white"/>
<path d="M130.298 170.137C135.346 170.137 139.439 166.044 139.439 160.996C139.439 155.947 135.346 151.855 130.298 151.855C125.249 151.855 121.157 155.947 121.157 160.996C121.157 166.044 125.249 170.137 130.298 170.137Z" fill="white"/>
<path d="M130.297 166.867C133.54 166.867 136.168 164.238 136.168 160.996C136.168 157.753 133.54 155.125 130.297 155.125C127.054 155.125 124.426 157.753 124.426 160.996C124.426 164.238 127.054 166.867 130.297 166.867Z" fill="#FF7D47"/>
<path opacity="0.3" d="M107.3 205.381L85.9115 183.993L103.423 167.507L123.786 187.87L107.3 205.381Z" fill="#FF7D47"/>
<path d="M72.2031 200.279C56.1838 201.582 50.8774 211.834 49.0675 225.464C48.1448 232.415 47.7352 239.448 41.8979 243.517C40.2779 244.647 41.0823 247.165 43.0566 247.103C64.5567 246.432 74.5849 235.903 75.8442 231.495C75.4105 234.282 74.7784 236.48 74.0782 238.209C73.3582 239.986 75.3092 241.63 76.9334 240.613C82.9691 236.831 90.539 229.873 91.0422 218.589C86.5797 212.317 72.2031 200.279 72.2031 200.279Z" fill="#FF7D47"/>
<path opacity="0.2" d="M72.2031 200.279C56.1838 201.582 50.8774 211.834 49.0675 225.464C48.1448 232.415 47.7352 239.448 41.8979 243.517C40.2779 244.647 41.0823 247.165 43.0566 247.103C64.5567 246.432 74.5849 235.903 75.8442 231.495C75.4105 234.282 74.7784 236.48 74.0782 238.209C73.3582 239.986 75.3092 241.63 76.9334 240.613C82.9691 236.831 90.539 229.873 91.0422 218.589C86.5797 212.317 72.2031 200.279 72.2031 200.279Z" fill="white"/>
<path d="M93.5026 223.441L67.8519 197.79L81.5171 194.834L96.4592 209.776L93.5026 223.441Z" fill="#FF7D47"/>
</g>
<defs>
<clipPath id="clip0_6_294">
<rect width="300" height="276.378" fill="white"/>
</clipPath>
</defs>
</svg>
